<svg width="64.002197" height="64.004883" viewBox="0 0 64.0022 64.0049" fill="none" xmlns="http://www.w3.org/2000/svg" xmlns:xlink="http://www.w3.org/1999/xlink">
	<desc>
			Created with Pixso.
	</desc>
	<defs>
		<clipPath id="clip1_1697">
			<rect id="user" rx="0.000000" width="39.000000" height="39.000000" transform="translate(12.502197 12.504883)" fill="white" fill-opacity="0"/>
		</clipPath>
	</defs>
	<rect id="user" rx="0.000000" width="39.000000" height="39.000000" transform="translate(12.502197 12.504883)" fill="#FFFFFF" fill-opacity="0"/>
	<g clip-path="url(#clip1_1697)">
		<path id="Vector" d="M45.53 41.83C44.8 40.08 43.73 38.5 42.38 37.16C41.05 35.82 39.46 34.75 37.72 34.01C37.7 34 37.68 34 37.67 33.99C40.1 32.23 41.68 29.37 41.68 26.14C41.68 20.79 37.35 16.45 32 16.45C26.65 16.45 22.31 20.79 22.31 26.14C22.31 29.37 23.89 32.23 26.33 34C26.31 34 26.29 34.01 26.28 34.02C24.53 34.75 22.96 35.81 21.61 37.16C20.27 38.5 19.2 40.09 18.46 41.83C17.74 43.54 17.35 45.37 17.31 47.23C17.31 47.27 17.32 47.31 17.33 47.35C17.35 47.39 17.37 47.42 17.4 47.45C17.43 47.48 17.46 47.51 17.5 47.52C17.54 47.54 17.58 47.55 17.62 47.55L19.97 47.55C20.14 47.55 20.27 47.41 20.28 47.24C20.36 44.23 21.57 41.4 23.71 39.26C25.92 37.05 28.86 35.83 32 35.83C35.13 35.83 38.07 37.05 40.29 39.26C42.43 41.4 43.64 44.23 43.72 47.24C43.72 47.41 43.86 47.55 44.03 47.55L46.37 47.55C46.41 47.55 46.46 47.54 46.49 47.52C46.53 47.51 46.57 47.48 46.6 47.45C46.63 47.42 46.65 47.39 46.66 47.35C46.68 47.31 46.69 47.27 46.68 47.23C46.65 45.36 46.26 43.54 45.53 41.83ZM32 32.86C30.2 32.86 28.52 32.16 27.25 30.89C25.98 29.62 25.28 27.93 25.28 26.14C25.28 24.35 25.98 22.66 27.25 21.39C28.52 20.12 30.2 19.42 32 19.42C33.79 19.42 35.48 20.12 36.75 21.39C38.02 22.66 38.72 24.35 38.72 26.14C38.72 27.93 38.02 29.62 36.75 30.89C35.48 32.16 33.79 32.86 32 32.86Z" fill="#1254FF" fill-opacity="1.000000" fill-rule="nonzero"/>
	</g>
	<circle id="Ellipse 43" cx="32.002197" cy="32.004883" r="31.500000" stroke="#000000" stroke-opacity="0.100000" stroke-width="1.000000"/>
	<path id="Ellipse 42" d="M42.94 1.93C35.01 -0.96 26.68 -0.51 19.47 2.56C11.71 5.86 5.92 11.88 2.75 19.04C-0.68 26.75 -0.8 35.09 1.77 42.49C4.53 50.46 10.14 56.64 17.07 60.3L17.51 59.45C10.28 55.64 5.17 49.35 2.68 42.18C-0.01 34.45 0.55 26.37 3.63 19.42C6.94 11.94 12.86 6.42 19.85 3.44C27.38 0.23 35.47 0.24 42.61 2.83L42.94 1.93Z" fill="#1254FF" fill-opacity="1.000000" fill-rule="evenodd"/>
</svg>
