<svg width="64.004883" height="64.002319" viewBox="0 0 64.0049 64.0023" fill="none" xmlns="http://www.w3.org/2000/svg" xmlns:xlink="http://www.w3.org/1999/xlink">
	<desc>
			Created with Pixso.
	</desc>
	<defs>
		<clipPath id="clip1_1692">
			<rect id="24" rx="0.000000" width="39.000000" height="39.000000" transform="translate(12.504883 12.500000)" fill="white" fill-opacity="0"/>
		</clipPath>
	</defs>
	<rect id="24" rx="0.000000" width="39.000000" height="39.000000" transform="translate(12.504883 12.500000)" fill="#FFFFFF" fill-opacity="0"/>
	<g clip-path="url(#clip1_1692)">
		<path id="Vector" d="M24.5 26.57C25.08 25.93 26.02 25.33 27.42 25.33C29.34 25.33 30.57 26.65 31.01 28.1C31.43 29.51 31.17 31.25 29.97 32.46C29.56 32.86 29.12 33.23 28.65 33.58L28.59 33.63C28.12 33.99 27.7 34.31 27.34 34.68C26.91 35.1 26.56 35.57 26.36 36.16L29.92 36.16C30.25 36.16 30.57 36.29 30.8 36.53C31.03 36.76 31.17 37.08 31.17 37.41C31.17 37.74 31.03 38.06 30.8 38.3C30.57 38.53 30.25 38.66 29.92 38.66L24.92 38.66C24.59 38.66 24.27 38.53 24.03 38.3C23.8 38.06 23.67 37.74 23.67 37.41C23.67 35.33 24.54 33.94 25.57 32.91C26.07 32.42 26.6 32 27.06 31.65L27.06 31.65C27.54 31.28 27.91 30.99 28.2 30.7C28.66 30.24 28.81 29.49 28.61 28.81C28.42 28.18 28 27.83 27.42 27.83C26.83 27.83 26.52 28.06 26.35 28.25C26.25 28.36 26.16 28.49 26.1 28.63L26.1 28.64C26 28.95 25.78 29.21 25.48 29.37C25.19 29.52 24.84 29.54 24.53 29.44C24.21 29.34 23.95 29.12 23.8 28.82C23.65 28.53 23.62 28.18 23.72 27.87L23.78 27.71C23.95 27.29 24.2 26.9 24.5 26.57L24.5 26.57Z" fill="#FFB21E" fill-opacity="1.000000" fill-rule="nonzero"/>
		<path id="Vector" d="M34.08 25.33C34.41 25.33 34.73 25.46 34.97 25.69C35.2 25.93 35.33 26.25 35.33 26.58L35.33 31.16L37.83 31.16L37.83 26.58C37.83 26.25 37.97 25.93 38.2 25.69C38.43 25.46 38.75 25.33 39.08 25.33C39.41 25.33 39.73 25.46 39.97 25.69C40.2 25.93 40.33 26.25 40.33 26.58L40.33 37.36C40.33 37.69 40.2 38.01 39.97 38.25C39.73 38.48 39.41 38.61 39.08 38.61C38.75 38.61 38.43 38.48 38.2 38.25C37.97 38.01 37.83 37.69 37.83 37.36L37.83 33.66L34.08 33.66C33.75 33.66 33.43 33.53 33.2 33.3C32.97 33.06 32.83 32.74 32.83 32.41L32.83 26.58C32.83 26.25 32.97 25.93 33.2 25.69C33.43 25.46 33.75 25.33 34.08 25.33Z" fill="#FFB21E" fill-opacity="1.000000" fill-rule="nonzero"/>
		<path id="Vector" d="M48.67 31.99C48.67 22.79 41.21 15.33 32 15.33C22.79 15.33 15.33 22.79 15.33 31.99C15.33 41.2 22.79 48.66 32 48.66C41.21 48.66 48.67 41.2 48.67 31.99ZM17.83 31.99C17.83 28.24 19.33 24.63 21.98 21.98C24.64 19.32 28.24 17.83 32 17.83C35.76 17.83 39.36 19.32 42.02 21.98C44.67 24.63 46.17 28.24 46.17 31.99C46.17 35.75 44.67 39.36 42.02 42.01C39.36 44.67 35.76 46.16 32 46.16C28.24 46.16 24.64 44.67 21.98 42.01C19.33 39.36 17.83 35.75 17.83 31.99Z" fill="#FFB21E" fill-opacity="1.000000" fill-rule="nonzero"/>
	</g>
	<circle id="Ellipse 43" cx="32.004883" cy="32.000000" r="31.500000" stroke="#000000" stroke-opacity="0.100000" stroke-width="1.000000"/>
	<path id="Ellipse 42" d="M1.93 21.05C-0.96 28.98 -0.51 37.32 2.56 44.52C5.86 52.29 11.88 58.07 19.04 61.24C26.75 64.67 35.09 64.79 42.49 62.22C50.46 59.46 56.64 53.85 60.3 46.93L59.45 46.48C55.64 53.72 49.35 58.82 42.18 61.31C34.45 64 26.37 63.44 19.42 60.36C11.94 57.06 6.42 51.13 3.44 44.14C0.23 36.62 0.24 28.52 2.83 21.38L1.93 21.05Z" fill="#FFB21E" fill-opacity="1.000000" fill-rule="evenodd"/>
</svg>
