<svg width="64.004272" height="64.003662" viewBox="0 0 64.0043 64.0037" fill="none" xmlns="http://www.w3.org/2000/svg" xmlns:xlink="http://www.w3.org/1999/xlink">
	<desc>
			Created with Pixso.
	</desc>
	<defs>
		<clipPath id="clip1_1690">
			<rect id="clean" rx="0.000000" width="39.000000" height="39.000000" transform="translate(12.504272 12.503662)" fill="white" fill-opacity="0"/>
		</clipPath>
	</defs>
	<rect id="clean" rx="0.000000" width="39.000000" height="39.000000" transform="translate(12.504272 12.503662)" fill="#FFFFFF" fill-opacity="0"/>
	<g clip-path="url(#clip1_1690)">
		<path id="Vector" d="M40.32 20.33L41.37 22.62L43.65 23.67L41.37 24.72L40.32 27L39.27 24.72L36.98 23.67L39.27 22.62L40.32 20.33ZM45.33 35.33C47.17 35.33 48.67 33.83 48.67 32C48.67 30.17 45.33 25.33 45.33 25.33C45.33 25.33 42 30.17 42 32C42 33.83 43.5 35.33 45.33 35.33ZM30.33 22.17L30.33 18.67L33.67 18.67C34.62 18.67 35.5 18.95 36.25 19.42L38.63 17.03C37.21 15.93 35.46 15.34 33.67 15.33L24.5 15.33L24.5 18.67L27 18.67L27 22.18C24.03 22.8 21.67 24.98 20.75 27.83L24.35 27.83C25.23 26.35 26.82 25.33 28.67 25.33C31.37 25.33 33.57 27.48 33.65 30.17L37 31.42L37 30.33C37 28.41 36.34 26.55 35.12 25.06C33.91 23.57 32.22 22.55 30.33 22.17ZM48.67 43.67L48.67 45.33L35.33 49.5L23.67 46.27L23.67 48.67L13.67 48.67L13.67 30.33L26.95 30.33L37.22 34.17C38.13 34.51 38.92 35.13 39.48 35.93C40.03 36.73 40.33 37.69 40.33 38.67L43.67 38.67C46.43 38.67 48.67 40.9 48.67 43.67ZM20.33 45.33L20.33 33.67L17 33.67L17 45.33L20.33 45.33ZM45.17 42.95C44.9 42.4 44.32 42.02 43.67 42.02L34.75 42.02C33.85 42.02 32.97 41.87 32.12 41.58L28.15 40.27L29.2 37.1L33.17 38.42C33.68 38.58 37 38.67 37 38.67C37 38.05 36.62 37.5 36.05 37.28L26.35 33.67L23.67 33.67L23.67 42.8L35.28 46.02L45.17 42.95Z" fill="#1254FF" fill-opacity="1.000000" fill-rule="nonzero"/>
	</g>
	<circle id="Ellipse 43" cx="32.004272" cy="32.003662" r="31.500000" stroke="#000000" stroke-opacity="0.100000" stroke-width="1.000000"/>
	<path id="Ellipse 42" d="M59.71 16C55.49 8.69 48.82 3.68 41.33 1.4C33.26 -1.07 24.96 -0.18 17.93 3.27C10.35 6.97 4.89 13.29 2.1 20.61C-0.91 28.49 -0.58 36.83 2.37 44.08L3.26 43.72C0.17 36.14 0.3 28.05 3 20.95C5.91 13.3 11.53 7.47 18.35 4.13C25.7 0.52 33.78 0.1 41.05 2.32C48.88 4.69 55.08 9.9 58.88 16.48L59.71 16Z" fill="#1254FF" fill-opacity="1.000000" fill-rule="evenodd"/>
</svg>
