<svg width="24.000000" height="24.000000" viewBox="0 0 24 24" fill="none" xmlns="http://www.w3.org/2000/svg" xmlns:xlink="http://www.w3.org/1999/xlink">
	<desc>
			Created with Pixso.
	</desc>
	<defs>
		<clipPath id="clip1_1609">
			<rect id="instagram 1" rx="0.000000" width="23.000000" height="23.000000" transform="translate(0.500000 0.500000)" fill="white" fill-opacity="0"/>
		</clipPath>
	</defs>
	<rect id="instagram 1" rx="0.000000" width="23.000000" height="23.000000" transform="translate(0.500000 0.500000)" fill="#FFFFFF" fill-opacity="0"/>
	<g clip-path="url(#clip1_1609)">
		<path id="Vector" d="M17.34 5.45C17.1 5.45 16.87 5.53 16.67 5.66C16.47 5.79 16.32 5.98 16.23 6.2C16.14 6.42 16.11 6.66 16.16 6.89C16.2 7.12 16.32 7.34 16.49 7.5C16.65 7.67 16.87 7.79 17.1 7.83C17.33 7.88 17.57 7.85 17.79 7.76C18.01 7.67 18.2 7.52 18.33 7.32C18.46 7.12 18.54 6.89 18.54 6.65C18.54 6.34 18.41 6.03 18.18 5.81C17.96 5.58 17.65 5.45 17.34 5.45ZM21.93 7.87C21.92 7.05 21.76 6.22 21.48 5.44C21.22 4.78 20.83 4.17 20.32 3.67C19.82 3.16 19.21 2.77 18.54 2.53C17.77 2.23 16.95 2.07 16.12 2.06C15.06 2 14.72 2 12 2C9.28 2 8.93 2 7.87 2.06C7.04 2.07 6.22 2.23 5.44 2.53C4.78 2.77 4.17 3.16 3.67 3.67C3.16 4.17 2.77 4.78 2.53 5.44C2.23 6.22 2.07 7.04 2.06 7.87C2 8.93 2 9.28 2 12C2 14.72 2 15.06 2.06 16.12C2.07 16.95 2.23 17.77 2.53 18.54C2.77 19.21 3.16 19.82 3.67 20.32C4.17 20.83 4.78 21.22 5.44 21.47C6.22 21.76 7.04 21.92 7.87 21.93C8.93 22 9.28 22 12 22C14.72 22 15.06 22 16.12 21.93C16.95 21.92 17.77 21.76 18.54 21.47C19.21 21.22 19.82 20.83 20.32 20.32C20.83 19.82 21.22 19.21 21.48 18.54C21.76 17.77 21.92 16.94 21.93 16.12C21.93 15.06 22 14.72 22 12C22 9.28 22 8.93 21.93 7.87ZM20.13 16C20.13 16.63 20.01 17.26 19.79 17.86C19.64 18.29 19.38 18.68 19.04 19.01C18.72 19.34 18.33 19.59 17.89 19.76C17.3 19.97 16.67 20.09 16.04 20.1C15.04 20.14 14.66 20.15 12.04 20.15C9.4 20.15 9.04 20.15 8.04 20.1C7.38 20.11 6.72 20.01 6.1 19.79C5.68 19.62 5.31 19.37 5 19.04C4.66 18.72 4.41 18.33 4.26 17.89C4.01 17.29 3.88 16.65 3.86 16C3.86 15 3.8 14.62 3.8 12C3.8 9.37 3.8 9 3.86 8C3.86 7.35 3.98 6.7 4.2 6.1C4.38 5.67 4.65 5.3 5 5C5.3 4.65 5.67 4.38 6.1 4.19C6.7 3.97 7.35 3.86 8 3.86C9 3.86 9.37 3.8 12 3.8C14.62 3.8 15 3.8 16 3.86C16.63 3.86 17.26 3.98 17.86 4.19C18.31 4.36 18.72 4.64 19.04 5C19.37 5.3 19.63 5.68 19.79 6.1C20.02 6.7 20.13 7.35 20.13 8C20.18 9 20.2 9.37 20.2 12C20.2 14.62 20.18 15 20.13 16ZM12 6.87C10.98 6.87 9.99 7.17 9.15 7.73C8.31 8.3 7.65 9.1 7.26 10.04C6.88 10.98 6.78 12.01 6.97 13C7.17 14 7.66 14.91 8.38 15.63C9.1 16.34 10.01 16.83 11.01 17.03C12 17.22 13.03 17.12 13.97 16.73C14.91 16.34 15.71 15.69 16.27 14.84C16.83 14 17.13 13.01 17.13 12C17.14 11.32 17 10.65 16.75 10.03C16.49 9.4 16.11 8.84 15.63 8.36C15.15 7.88 14.59 7.51 13.96 7.25C13.34 6.99 12.67 6.86 12 6.87ZM12 15.33C11.34 15.33 10.69 15.13 10.14 14.76C9.6 14.4 9.17 13.88 8.92 13.27C8.67 12.66 8.6 11.99 8.73 11.35C8.86 10.7 9.17 10.11 9.64 9.64C10.11 9.17 10.7 8.86 11.35 8.73C11.99 8.6 12.66 8.67 13.27 8.92C13.88 9.17 14.4 9.6 14.76 10.14C15.13 10.69 15.33 11.34 15.33 12C15.33 12.43 15.24 12.87 15.07 13.27C14.9 13.67 14.66 14.04 14.35 14.35C14.04 14.66 13.67 14.9 13.27 15.07C12.87 15.24 12.43 15.33 12 15.33Z" fill="#000000" fill-opacity="1.000000" fill-rule="nonzero"/>
	</g>
</svg>
