<svg width="24.000000" height="24.000000" viewBox="0 0 24 24" fill="none" xmlns="http://www.w3.org/2000/svg" xmlns:xlink="http://www.w3.org/1999/xlink">
	<desc>
			Created with Pixso.
	</desc>
	<defs>
		<clipPath id="clip1_1615">
			<rect id="linkedin 1" rx="0.000000" width="23.000000" height="23.000000" transform="translate(0.500000 0.500000)" fill="white" fill-opacity="0"/>
		</clipPath>
	</defs>
	<rect id="linkedin 1" rx="0.000000" width="23.000000" height="23.000000" transform="translate(0.500000 0.500000)" fill="#FFFFFF" fill-opacity="0"/>
	<g clip-path="url(#clip1_1615)">
		<path id="Vector" d="M20.46 2L3.53 2C3.33 1.99 3.15 2.03 2.97 2.1C2.79 2.17 2.63 2.27 2.49 2.41C2.36 2.54 2.25 2.7 2.17 2.87C2.1 3.05 2.06 3.23 2.06 3.42L2.06 20.56C2.06 20.76 2.1 20.94 2.17 21.12C2.25 21.29 2.36 21.45 2.49 21.58C2.63 21.72 2.79 21.82 2.97 21.89C3.15 21.96 3.33 22 3.53 22L20.46 22C20.66 22 20.84 21.96 21.02 21.89C21.2 21.82 21.36 21.72 21.5 21.58C21.63 21.45 21.74 21.29 21.82 21.12C21.89 20.94 21.93 20.76 21.93 20.56L21.93 3.42C21.93 3.23 21.89 3.05 21.82 2.87C21.74 2.7 21.63 2.54 21.5 2.41C21.36 2.27 21.2 2.17 21.02 2.1C20.84 2.03 20.66 1.99 20.46 2ZM8.09 18.74L5.09 18.74L5.09 9.73L8.09 9.73L8.09 18.74ZM6.59 8.47C6.17 8.47 5.77 8.31 5.48 8.02C5.19 7.73 5.03 7.33 5.03 6.91C5.03 6.5 5.19 6.1 5.48 5.81C5.77 5.52 6.17 5.35 6.59 5.35C6.8 5.33 7.03 5.35 7.24 5.42C7.45 5.49 7.64 5.6 7.81 5.74C7.97 5.89 8.1 6.07 8.19 6.27C8.29 6.48 8.33 6.69 8.33 6.91C8.33 7.14 8.29 7.35 8.19 7.56C8.1 7.76 7.97 7.94 7.81 8.09C7.64 8.23 7.45 8.34 7.24 8.41C7.03 8.48 6.8 8.5 6.59 8.47ZM18.91 18.74L15.91 18.74L15.91 13.9C15.91 12.7 15.48 11.9 14.39 11.9C14.05 11.91 13.72 12.01 13.44 12.21C13.17 12.4 12.96 12.68 12.85 13C12.77 13.23 12.73 13.48 12.75 13.73L12.75 18.73L9.75 18.73C9.75 18.73 9.75 10.54 9.75 9.72L12.75 9.72L12.75 11C13.02 10.52 13.41 10.13 13.89 9.87C14.37 9.6 14.91 9.47 15.46 9.5C17.45 9.5 18.91 10.78 18.91 13.55L18.91 18.74Z" fill="#000000" fill-opacity="1.000000" fill-rule="nonzero"/>
	</g>
</svg>
