<svg width="24.000000" height="24.000000" viewBox="0 0 24 24" fill="none" xmlns="http://www.w3.org/2000/svg" xmlns:xlink="http://www.w3.org/1999/xlink">
	<desc>
			Created with Pixso.
	</desc>
	<defs>
		<clipPath id="clip1_1611">
			<rect id="youtube 1" rx="0.000000" width="23.000000" height="23.000000" transform="translate(0.500000 0.500000)" fill="white" fill-opacity="0"/>
		</clipPath>
	</defs>
	<rect id="youtube 1" rx="0.000000" width="23.000000" height="23.000000" transform="translate(0.500000 0.500000)" fill="#FFFFFF" fill-opacity="0"/>
	<g clip-path="url(#clip1_1611)">
		<path id="Vector" d="M23 9.7C23.04 8.27 22.73 6.85 22.09 5.58C21.65 5.05 21.04 4.7 20.37 4.58C17.58 4.32 14.79 4.22 12 4.27C9.21 4.22 6.43 4.32 3.65 4.57C3.11 4.66 2.6 4.92 2.19 5.31C1.3 6.13 1.19 7.56 1.1 8.76C0.95 10.91 0.95 13.08 1.1 15.24C1.12 15.91 1.22 16.58 1.4 17.24C1.52 17.74 1.76 18.21 2.11 18.6C2.51 19 3.03 19.27 3.6 19.37C5.75 19.64 7.92 19.75 10.1 19.7C13.6 19.76 16.66 19.7 20.29 19.42C20.87 19.33 21.41 19.05 21.83 18.64C22.11 18.36 22.31 18.02 22.43 17.64C22.79 16.55 22.97 15.4 22.96 14.25C23 13.68 23 10.31 23 9.7ZM9.73 14.85L9.73 8.65L15.65 11.77C14 12.68 11.81 13.73 9.73 14.85Z" fill="#000000" fill-opacity="1.000000" fill-rule="nonzero"/>
	</g>
</svg>
