<svg width="64.000000" height="64.004028" viewBox="0 0 64 64.004" fill="none" xmlns="http://www.w3.org/2000/svg" xmlns:xlink="http://www.w3.org/1999/xlink">
	<desc>
			Created with Pixso.
	</desc>
	<defs>
		<clipPath id="clip1_1681">
			<rect id="price" rx="0.000000" width="39.000000" height="39.000000" transform="translate(12.500000 12.500000)" fill="white" fill-opacity="0"/>
		</clipPath>
	</defs>
	<rect id="price" rx="0.000000" width="39.000000" height="39.000000" transform="translate(12.500000 12.500000)" fill="#FFFFFF" fill-opacity="0"/>
	<g clip-path="url(#clip1_1681)">
		<path id="Vector" d="M30.33 33.66L30.33 27C30.33 26.08 29.58 25.33 28.66 25.33L22 25.33L22 22L28.66 22C29.58 22 30.33 21.25 30.33 20.33C30.33 19.41 29.58 18.66 28.66 18.66L26.16 18.66C26.16 17.75 25.41 17 24.5 17C23.58 17 22.83 17.75 22.83 18.66L20.33 18.66C19.41 18.66 18.66 19.41 18.66 20.33L18.66 27C18.66 27.91 19.41 28.66 20.33 28.66L27 28.66L27 32L20.33 32C19.41 32 18.66 32.75 18.66 33.66C18.66 34.58 19.41 35.33 20.33 35.33L22.83 35.33C22.83 36.25 23.58 37 24.5 37C25.41 37 26.16 36.25 26.16 35.33L28.66 35.33C29.58 35.33 30.33 34.58 30.33 33.66ZM43.46 34.03L35.21 42.28L31.68 38.75C31.37 38.43 30.94 38.26 30.5 38.26C30.06 38.26 29.64 38.43 29.33 38.75C29.02 39.06 28.84 39.48 28.84 39.92C28.84 40.36 29.02 40.78 29.33 41.1L34.05 45.81C34.7 46.46 35.75 46.46 36.4 45.81L45.83 36.38C45.98 36.22 46.11 36.04 46.19 35.84C46.27 35.64 46.32 35.42 46.32 35.2C46.32 34.99 46.27 34.77 46.19 34.57C46.11 34.37 45.98 34.18 45.83 34.03C45.16 33.38 44.11 33.38 43.46 34.03Z" fill="#FFB21E" fill-opacity="1.000000" fill-rule="nonzero"/>
	</g>
	<circle id="Ellipse 41" cx="32.000000" cy="32.000000" r="31.500000" stroke="#000000" stroke-opacity="0.100000" stroke-width="1.000000"/>
	<path id="Ellipse 42" d="M64 32C64 38.69 61.93 44.91 58.41 50.05C54.64 55.58 49.42 59.55 43.62 61.81C37.38 64.24 30.84 64.58 24.77 63.16C18.24 61.65 12.65 58.24 8.44 53.65L9.14 53C13.54 57.78 19.09 60.87 24.98 62.23C31.31 63.7 37.63 63.11 43.26 60.91C49.32 58.56 54.21 54.5 57.62 49.51C61.29 44.15 63.04 38.04 63.04 32L64 32Z" fill="#FFB21E" fill-opacity="1.000000" fill-rule="evenodd"/>
</svg>
