<svg width="64.000488" height="64.000000" viewBox="0 0 64.0005 64" fill="none" xmlns="http://www.w3.org/2000/svg" xmlns:xlink="http://www.w3.org/1999/xlink">
	<desc>
			Created with Pixso.
	</desc>
	<defs>
		<clipPath id="clip1_1683">
			<rect id="premium" rx="0.000000" width="39.000000" height="39.000000" transform="translate(12.500000 12.500000)" fill="white" fill-opacity="0"/>
		</clipPath>
	</defs>
	<g clip-path="url(#clip1_1683)">
		<path id="Star 1" d="M28.28 28.28L17 32L28.28 35.71L32 47L35.71 35.71L47 32L35.71 28.28L32 17L28.28 28.28ZM32 10.59L26.7 26.7L10.59 32L26.7 37.29L32 53.4L37.29 37.29L53.4 32L37.29 26.7L32 10.59Z" fill="#1254FF" fill-opacity="1.000000" fill-rule="evenodd"/>
	</g>
	<circle id="Ellipse 41" cx="32.000000" cy="32.000000" r="31.500000" stroke="#000000" stroke-opacity="0.100000" stroke-width="1.000000"/>
	<path id="Ellipse 42" d="M56.51 52.56C60.69 47.58 63.09 41.69 63.78 35.67C64.53 29.21 63.29 22.98 60.56 17.57C57.63 11.77 53.16 7.24 47.9 4.23L47.43 5.06C52.9 8.2 57.06 12.76 59.7 18.01C62.55 23.64 63.51 29.73 62.83 35.57C62.1 41.83 59.55 47.45 55.77 51.95L56.51 52.56Z" fill="#1254FF" fill-opacity="1.000000" fill-rule="evenodd"/>
</svg>
