<svg width="64.000000" height="64.000000" viewBox="0 0 64 64" fill="none" xmlns="http://www.w3.org/2000/svg" xmlns:xlink="http://www.w3.org/1999/xlink">
	<desc>
			Created with Pixso.
	</desc>
	<defs>
		<clipPath id="clip1_1685">
			<rect id="network" rx="0.000000" width="39.000000" height="39.000000" transform="translate(12.500000 12.500000)" fill="white" fill-opacity="0"/>
		</clipPath>
	</defs>
	<circle id="Ellipse 41" cx="32.000000" cy="32.000000" r="31.500000" stroke="#000000" stroke-opacity="0.100000" stroke-width="1.000000"/>
	<path id="Ellipse 42" d="M26.44 0.48C18.66 1.85 12.04 5.93 7.36 11.58C2.32 17.65 -0.09 25.05 0.01 32.38C0.09 40.28 3.05 47.48 7.87 53C13.04 58.96 19.96 62.53 27.2 63.63L27.35 62.69C19.77 61.54 13.25 57.74 8.59 52.37C3.55 46.6 1.05 39.48 0.96 32.37C0.86 24.71 3.56 17.66 8.1 12.19C12.98 6.29 19.6 2.66 26.6 1.43L26.44 0.48Z" fill="#FFB21E" fill-opacity="1.000000" fill-rule="evenodd"/>
	<rect id="network" rx="0.000000" width="39.000000" height="39.000000" transform="translate(12.500000 12.500000)" fill="#FFFFFF" fill-opacity="0"/>
	<g clip-path="url(#clip1_1685)">
		<path id="Vector" d="M40.75 44.5C40.75 45.88 39.63 47 38.25 47C36.86 47 35.75 45.88 35.75 44.5C35.75 43.11 36.86 42 38.25 42C39.63 42 40.75 43.11 40.75 44.5Z" fill="#FFB21E" fill-opacity="1.000000" fill-rule="evenodd"/>
		<path id="Vector" d="M40.75 19.5C40.75 20.88 39.63 22 38.25 22C36.86 22 35.75 20.88 35.75 19.5C35.75 18.11 36.86 17 38.25 17C39.63 17 40.75 18.11 40.75 19.5Z" fill="#FFB21E" fill-opacity="1.000000" fill-rule="evenodd"/>
		<path id="Vector" d="M19.5 32C19.5 33.38 18.38 34.5 17 34.5C15.61 34.5 14.5 33.38 14.5 32C14.5 30.61 15.61 29.5 17 29.5C18.38 29.5 19.5 30.61 19.5 32Z" fill="#FFB21E" fill-opacity="1.000000" fill-rule="evenodd"/>
		<path id="Vector" d="M47 27C45.89 27 44.82 27.37 43.94 28.05C43.07 28.73 42.45 29.67 42.17 30.75L36.82 30.75C36.64 30.04 36.31 29.38 35.85 28.82C35.39 28.26 34.81 27.8 34.16 27.49C33.5 27.17 32.79 27 32.06 27C31.33 26.99 30.62 27.14 29.95 27.44L25.98 22.48C26.64 21.62 26.99 20.57 27 19.5C27 18.51 26.7 17.54 26.15 16.72C25.6 15.89 24.82 15.25 23.91 14.88C22.99 14.5 21.99 14.4 21.02 14.59C20.05 14.78 19.16 15.26 18.46 15.96C17.76 16.66 17.28 17.55 17.09 18.52C16.9 19.49 17 20.49 17.38 21.41C17.75 22.32 18.39 23.1 19.22 23.65C20.04 24.2 21.01 24.5 22 24.5C22.7 24.49 23.4 24.34 24.04 24.05L28.01 29.01C27.35 29.87 27 30.92 27 32C27 33.07 27.35 34.12 28.01 34.98L24.04 39.94C23.4 39.65 22.7 39.5 22 39.5C21.01 39.5 20.04 39.79 19.22 40.34C18.39 40.89 17.75 41.67 17.38 42.58C17 43.5 16.9 44.5 17.09 45.47C17.28 46.44 17.76 47.33 18.46 48.03C19.16 48.73 20.05 49.21 21.02 49.4C21.99 49.59 22.99 49.49 23.91 49.11C24.82 48.74 25.6 48.1 26.15 47.27C26.7 46.45 27 45.48 27 44.5C26.99 43.42 26.64 42.37 25.98 41.51L29.95 36.55C30.61 36.85 31.33 37 32.06 37C32.79 36.99 33.5 36.82 34.16 36.51C34.81 36.19 35.39 35.73 35.85 35.17C36.31 34.61 36.64 33.95 36.82 33.25L42.17 33.25C42.41 34.15 42.89 34.97 43.57 35.61C44.25 36.25 45.09 36.69 46.01 36.88C46.92 37.06 47.87 36.99 48.74 36.66C49.62 36.34 50.38 35.77 50.95 35.04C51.52 34.3 51.88 33.41 51.97 32.48C52.06 31.55 51.89 30.62 51.48 29.78C51.07 28.94 50.43 28.24 49.64 27.75C48.84 27.25 47.93 26.99 47 27ZM19.5 19.5C19.5 19 19.64 18.52 19.92 18.11C20.19 17.7 20.58 17.37 21.04 17.19C21.5 17 22 16.95 22.48 17.04C22.97 17.14 23.41 17.38 23.76 17.73C24.11 18.08 24.35 18.52 24.45 19.01C24.54 19.49 24.49 19.99 24.3 20.45C24.12 20.91 23.8 21.3 23.38 21.57C22.97 21.85 22.49 22 22 22C21.33 21.99 20.7 21.73 20.23 21.26C19.76 20.79 19.5 20.16 19.5 19.5ZM22 47C21.5 47 21.02 46.85 20.61 46.57C20.2 46.3 19.87 45.91 19.69 45.45C19.5 44.99 19.45 44.49 19.54 44.01C19.64 43.52 19.88 43.08 20.23 42.73C20.58 42.38 21.02 42.14 21.51 42.04C21.99 41.95 22.5 42 22.95 42.19C23.41 42.37 23.8 42.7 24.07 43.11C24.35 43.52 24.5 44 24.5 44.5C24.49 45.16 24.23 45.79 23.76 46.26C23.29 46.73 22.66 46.99 22 47ZM32 34.5C31.5 34.5 31.02 34.35 30.61 34.07C30.2 33.8 29.87 33.41 29.69 32.95C29.5 32.49 29.45 31.99 29.54 31.51C29.64 31.02 29.88 30.58 30.23 30.23C30.58 29.88 31.02 29.64 31.51 29.54C31.99 29.45 32.5 29.5 32.95 29.69C33.41 29.87 33.8 30.2 34.07 30.61C34.35 31.02 34.5 31.5 34.5 32C34.49 32.66 34.23 33.29 33.76 33.76C33.29 34.23 32.66 34.49 32 34.5ZM47 34.5C46.5 34.5 46.02 34.35 45.61 34.07C45.2 33.8 44.87 33.41 44.69 32.95C44.5 32.49 44.45 31.99 44.54 31.51C44.64 31.02 44.88 30.58 45.23 30.23C45.58 29.88 46.02 29.64 46.51 29.54C46.99 29.45 47.5 29.5 47.95 29.69C48.41 29.87 48.8 30.2 49.07 30.61C49.35 31.02 49.5 31.5 49.5 32C49.49 32.66 49.23 33.29 48.76 33.76C48.29 34.23 47.66 34.49 47 34.5Z" fill="#FFB21E" fill-opacity="1.000000" fill-rule="nonzero"/>
	</g>
</svg>
